<?xml version="1.0" standalone="no"?><!DOCTYPE svg PUBLIC "-//W3C//DTD SVG 1.1//EN" "http://www.w3.org/Graphics/SVG/1.1/DTD/svg11.dtd"><svg t="1547723727030" class="icon" style="" viewBox="0 0 1024 1024" version="1.1" xmlns="http://www.w3.org/2000/svg" xmlns:xlink="http://www.w3.org/1999/xlink" width="64" height="64"><defs><style type="text/css"></style></defs><path d="M1023.8194 125.697354l-112.69418-13.003174L898.122046 0 805.474427 92.647619C722.398589 34.313933 621.262787 0 512 0 229.180952 0 0 229.180952 0 512S229.180952 1024 512 1024s511.8194-229.361552 511.8194-512c0-109.262787-34.313933-210.579189-92.647619-293.655026l92.647619-92.64762z m-214.191181 65.015874L843.400353 156.941093l2.347795 21.130159 21.130159 2.347796-33.772134 33.772134-49.845503 49.845502-18.601763 18.601764-21.130159-2.347795-2.347796-21.130159 18.601764-18.601764 49.845503-49.845502zM949.954145 512C949.954145 753.822928 753.822928 949.954145 512 949.954145S73.865256 753.822928 73.865256 512 269.996473 73.865256 512 73.865256c88.855026 0 171.389065 26.367549 240.378131 71.878659l-87.04903 87.04903 7.585185 65.918872L572.500882 399.12522c-18.059965-9.752381-38.648325-15.17037-60.500882-15.17037-70.614462 0-128.04515 57.430688-128.04515 128.04515s57.430688 128.04515 128.04515 128.04515c70.614462 0 128.04515-57.430688 128.04515-128.04515 0-21.852557-5.598589-42.440917-15.17037-60.500882l100.413403-100.413404 65.918872 7.585185 87.04903-87.04903c45.330511 68.808466 71.69806 151.523104 71.69806 240.378131z m-382.148854 0c0 30.70194-25.103351 55.805291-55.805291 55.805291s-55.805291-25.103351-55.805291-55.805291 25.103351-55.805291 55.805291-55.805291 55.805291 24.922751 55.805291 55.805291z" fill="#BA2C1B"></path></svg>