<?xml version="1.0" standalone="no"?><!DOCTYPE svg PUBLIC "-//W3C//DTD SVG 1.1//EN" "http://www.w3.org/Graphics/SVG/1.1/DTD/svg11.dtd"><svg t="1547724241918" class="icon" style="" viewBox="0 0 1024 1024" version="1.1" xmlns="http://www.w3.org/2000/svg" xmlns:xlink="http://www.w3.org/1999/xlink" width="64" height="64"><defs><style type="text/css"></style></defs><path d="M934 271c0-90-73-163-163-163H292.3c-66.5 0-118.8 56.7-113.5 122.9L221.1 704H91l-1 54c0 84.6 66.4 153.6 150 157.8v0.2h424.3c98.2 0 177.7-79.6 177.7-177.7L795.8 328H934v-57zM171.6 834.4c-20.3-20.3-31.5-47.3-31.6-76l0.1-4.4h85.4l9.9 111.3c-24-2.8-46.3-13.5-63.8-30.9zM792 740.9c-0.7 33.2-13.9 64.2-37.4 87.7-24.1 24.1-56.2 37.4-90.3 37.4H285.7l-57.1-639.3c-1.4-17.9 4.6-35 16.8-48.2 12.2-13.2 28.9-20.5 46.9-20.5h19c23.4 26.3 37.7 61 37.7 99 0 25.7-6.5 49.9-18 71h414.4L792 740.9zM884 278H397.9c0.7-7 1.1-14 1.1-21 0-36-9.4-69.8-26-99h398c30.2 0 58.6 11.8 79.9 33.1S884 240.8 884 271v7zM664.5 515h-297v-50h297v50z m0 123.2h-297v-50h297v50z" fill="#BA2C1B"></path></svg>