<?xml version="1.0" standalone="no"?><!DOCTYPE svg PUBLIC "-//W3C//DTD SVG 1.1//EN" "http://www.w3.org/Graphics/SVG/1.1/DTD/svg11.dtd"><svg t="1547869315537" class="icon" style="" viewBox="0 0 1024 1024" version="1.1" xmlns="http://www.w3.org/2000/svg" xmlns:xlink="http://www.w3.org/1999/xlink" width="64" height="64"><defs><style type="text/css"></style></defs><path d="M608 293.197c14.157 0 25.6-11.623 25.6-25.959s-11.443-25.932-25.6-25.932H467.2c-14.131 0-25.6 11.622-25.6 25.932 0 14.336 11.469 25.959 25.6 25.959H608zM864 293.197c14.157 0 25.6-11.623 25.6-25.959s-11.443-25.932-25.6-25.932H723.2c-14.157 0-25.6 11.622-25.6 25.932 0 14.336 11.443 25.959 25.6 25.959H864zM608 448.845c14.157 0 25.6-11.597 25.6-25.933s-11.443-25.958-25.6-25.958H467.2c-14.131 0-25.6 11.622-25.6 25.958s11.469 25.933 25.6 25.933H608zM864 448.845c14.157 0 25.6-11.597 25.6-25.933s-11.443-25.958-25.6-25.958H723.2c-14.157 0-25.6 11.622-25.6 25.958s11.443 25.933 25.6 25.933H864zM608 604.544c14.157 0 25.6-11.622 25.6-25.958 0-14.362-11.443-25.959-25.6-25.959H467.2c-14.131 0-25.6 11.597-25.6 25.959 0 14.336 11.469 25.958 25.6 25.958H608zM864 604.544c14.157 0 25.6-11.622 25.6-25.958 0-14.362-11.443-25.959-25.6-25.959H723.2c-14.157 0-25.6 11.597-25.6 25.959 0 14.336 11.443 25.958 25.6 25.958H864zM608 760.269c14.157 0 25.6-11.623 25.6-25.959 0-14.361-11.443-25.958-25.6-25.958H467.2c-14.131 0-25.6 11.597-25.6 25.958 0 14.336 11.469 25.959 25.6 25.959H608zM864 760.269c14.157 0 25.6-11.623 25.6-25.959 0-14.361-11.443-25.958-25.6-25.958H723.2c-14.157 0-25.6 11.597-25.6 25.958 0 14.336 11.443 25.959 25.6 25.959H864zM352 293.197c14.157 0 25.6-11.623 25.6-25.959s-11.443-25.932-25.6-25.932H211.2c-14.131 0-25.6 11.622-25.6 25.932 0 14.336 11.469 25.959 25.6 25.959H352zM352 448.845c14.157 0 25.6-11.597 25.6-25.933s-11.443-25.958-25.6-25.958H211.2c-14.131 0-25.6 11.622-25.6 25.958s11.469 25.933 25.6 25.933H352zM352 604.544c14.157 0 25.6-11.622 25.6-25.958 0-14.362-11.443-25.959-25.6-25.959H211.2c-14.131 0-25.6 11.597-25.6 25.959 0 14.336 11.469 25.958 25.6 25.958H352zM352 760.269c14.157 0 25.6-11.623 25.6-25.959 0-14.361-11.443-25.958-25.6-25.958H211.2c-14.131 0-25.6 11.597-25.6 25.958 0 14.336 11.469 25.959 25.6 25.959H352z" fill="#BA2C1B" ></path><path d="M881.766 64H0v751.437C0 895.257 63.693 960 142.234 960H1024V670.976c0-15.974-12.723-28.902-28.442-28.902-15.692 0-28.441 12.928-28.441 28.902v231.22H142.234c-47.104 0-85.325-38.862-85.325-86.785V121.805h824.883c47.104 0 85.325 38.912 85.325 86.886l0.23 259.943c0.461 15.308 12.851 27.648 28.263 27.648s27.801-12.34 28.262-27.648L1024 208.69C1024 128.794 960.333 64 881.766 64z" fill="#BA2C1B" ></path></svg>