<?xml version="1.0" standalone="no"?><!DOCTYPE svg PUBLIC "-//W3C//DTD SVG 1.1//EN" "http://www.w3.org/Graphics/SVG/1.1/DTD/svg11.dtd"><svg t="1547724419621" class="icon" style="" viewBox="0 0 1024 1024" version="1.1" xmlns="http://www.w3.org/2000/svg" xmlns:xlink="http://www.w3.org/1999/xlink" width="64" height="64"><defs><style type="text/css"></style></defs><path d="M800 960h-576a128 128 0 0 1-128-128V379.968a128 128 0 0 1 128-127.936h170.176c-43.2-9.408-76.16-46.016-76.16-92.032a96 96 0 1 1 192 0 96 96 0 1 1 192 0c0 46.016-33.024 82.624-76.224 92.032H800a128 128 0 0 1 128 127.936V832a128 128 0 0 1-128 128z m-640-128a64 64 0 0 0 64 64h192V512h-256v320z m64-515.968a64 64 0 0 0-64 63.936V448h256V316.032h-192zM446.016 160a32 32 0 1 0-32 32c8.384 0 45.888 22.592 45.888 22.592s-13.888-45.312-13.888-54.592zM544 316.032h-64V896h64V316.032zM638.016 160a32 32 0 0 0-64 0c0 10.432-17.344 50.368-17.344 50.368S598.784 192 606.016 192a32 32 0 0 0 32-32zM864 379.968a64 64 0 0 0-64-63.936h-192V448h256V379.968zM864 512h-256v384h192a64 64 0 0 0 64-64V512z" fill="#BA2C1B"></path></svg>