<?xml version="1.0" standalone="no"?><!DOCTYPE svg PUBLIC "-//W3C//DTD SVG 1.1//EN" "http://www.w3.org/Graphics/SVG/1.1/DTD/svg11.dtd"><svg t="1547724133426" class="icon" style="" viewBox="0 0 1024 1024" version="1.1" xmlns="http://www.w3.org/2000/svg" xmlns:xlink="http://www.w3.org/1999/xlink" width="64" height="64"><defs><style type="text/css"></style></defs><path d="M512 0C230.4 0 0 199.111111 0 446.577778s230.4 446.577778 512 446.577778V1024s312.888889-219.022222 366.933333-267.377778c91.022222-79.644444 145.066667-190.577778 145.066667-312.888889C1024 199.111111 793.6 0 512 0z m0 76.8c238.933333 0 435.2 164.977778 435.2 372.622222 0 93.866667-42.666667 187.733333-122.311111 258.844445-31.288889 28.444444-159.288889 119.466667-258.844445 190.577777v-76.8H512C273.066667 822.044444 76.8 654.222222 76.8 449.422222S273.066667 76.8 512 76.8zM219.022222 438.044444c0 36.977778 31.288889 68.266667 68.266667 68.266667s68.266667-31.288889 68.266667-68.266667c0-42.666667-31.288889-68.266667-68.266667-68.266666s-68.266667 31.288889-68.266667 68.266666z m466.488889 0c0 39.822222 34.133333 73.955556 73.955556 73.955556 39.822222 0 73.955556-34.133333 73.955555-73.955556 0-42.666667-34.133333-73.955556-73.955555-73.955555-39.822222 2.844444-73.955556 36.977778-73.955556 73.955555zM512 366.933333c-39.822222 0-73.955556 34.133333-73.955556 73.955556S472.177778 512 512 512s73.955556-34.133333 73.955556-73.955556c0-42.666667-34.133333-71.111111-73.955556-71.111111z" fill="#BA2C1B" ></path></svg>