<?xml version="1.0" standalone="no"?><!DOCTYPE svg PUBLIC "-//W3C//DTD SVG 1.1//EN" "http://www.w3.org/Graphics/SVG/1.1/DTD/svg11.dtd"><svg t="1547724546563" class="icon" style="" viewBox="0 0 1024 1024" version="1.1" xmlns="http://www.w3.org/2000/svg" xmlns:xlink="http://www.w3.org/1999/xlink" width="64" height="64"><defs><style type="text/css"></style></defs><path d="M543.5 708.4h-81.9c-4 0-7.9-0.5-11.8-1.5-93.2-12.4-172.5-66.8-223.3-153.2-58.8-99.9-72-229.8-32.9-323.2 7.2-17 23.7-28.2 42.1-28.6l8-0.1c45.5 0 88.5 7.5 128.2 22.4 29.4-49.8 62.6-88.5 99.1-115.2 3.5-2.9 7.4-5.3 11.6-7.1 14.3-6.2 30.8-4.8 44 3.7 1.9 1.3 3.7 2.6 5.4 4.1 20.1 14.9 39.2 33.4 56.9 55.2 7.2 8.9 5.9 22-3 29.2-8.9 7.2-22 5.9-29.2-3-15.7-19.4-32.6-35.7-50.2-48.6l-2-1.7c-2-1.4-3.9-1.5-5.6-0.8-0.6 0.3-1.1 0.5-1.5 0.9L496 142c-35.5 25.9-68.1 65.6-96.9 118.1l-9.1 16.7-17.4-7.7c-39.2-17.2-82.5-26-128.7-26l-7.6 0.1c-1.8 0-3.6 1.3-4.4 3.2-34.3 82-22 197 30.4 286.2 44.5 75.6 113.5 122.9 194.4 133.3l3.5 0.8c0.4 0.1 0.9 0.2 1.4 0.2h81.9c0.6 0 1.3-0.1 2.2-0.4l2.8-0.6c56.8-7.3 108.4-33 149.3-74.4 8.1-8.2 21.2-8.2 29.4-0.2 8.1 8.1 8.2 21.2 0.2 29.3-47.2 47.7-106.7 77.5-172.3 86.2-4 1.1-7.8 1.6-11.6 1.6zM478.4 928c-12 0-21.7-10-21.7-22.3V773c0-12.3 9.7-22.3 21.7-22.3s21.7 10 21.7 22.3v132.7c0 12.4-9.7 22.3-21.7 22.3zM601.1 887c-4.8 0-9.5-1.6-13.4-5-8.7-7.4-9.8-20.5-2.3-29.3C648.6 778.5 740.7 736 838.1 736c11.5 0 20.8 9.3 20.8 20.8s-9.3 20.8-20.8 20.8c-85.2 0-165.9 37.3-221.2 102.2-4.1 4.7-9.9 7.2-15.8 7.2zM356.3 887c-5.9 0-11.7-2.5-15.8-7.3-55.3-65-136-102.2-221.2-102.2-11.5 0-20.8-9.3-20.8-20.8s9.3-20.8 20.8-20.8c97.4 0 189.6 42.6 252.8 116.8 7.4 8.7 6.4 21.8-2.3 29.3-4 3.3-8.8 5-13.5 5z" fill="#BA2C1B"></path><path d="M743.7 557.1c-6 0-15 0-66.2-43.2-14.8-12.5-50.9-43.9-71.8-70.3-25.4-24-44.4-65.1-44.4-96.4 0-66.4 49.6-120.4 110.5-120.4 25.5 0 50.7 13.1 71.7 36.7 21-23.6 46.2-36.7 71.7-36.7 60.9 0 110.5 54 110.5 120.4 0 31.3-19.1 72.5-44.6 96.6-24.8 30.7-113.6 113.3-137.4 113.3z m-72-288.8c-38 0-69 35.4-69 78.9 0 20 15.1 51.3 32.2 67l2.4 2.6c25.4 32.6 85.3 81.9 106.5 96.3 21.7-14.5 80.2-63.7 105.4-96.1l2.4-2.6c17.3-15.7 32.4-47.1 32.4-67.1 0-43.5-30.9-78.9-69-78.9-26.8 0-48.1 31.3-54 40.9l-17.7 28.9-17.7-28.9c-5.8-9.7-27.1-41-53.9-41z" fill="#BA2C1B"></path></svg>