<?xml version="1.0" standalone="no"?><!DOCTYPE svg PUBLIC "-//W3C//DTD SVG 1.1//EN" "http://www.w3.org/Graphics/SVG/1.1/DTD/svg11.dtd"><svg t="1547725072171" class="icon" style="" viewBox="0 0 1024 1024" version="1.1" xmlns="http://www.w3.org/2000/svg" xmlns:xlink="http://www.w3.org/1999/xlink" width="64" height="64"><defs><style type="text/css"></style></defs><path d="M707.1 505.7H547.9V249.8c0-1.1-0.9-2-2-2h-60.5c-1.1 0-2 0.9-2 2v318.3c0 1.1 0.9 2 2 2H707c1.1 0 2-0.9 2-2v-60.5c0.1-1-0.8-1.9-1.9-1.9z" fill="#BA2C1B"></path><path d="M804.2 835.5C882.4 759.3 931 653 931 535.5c0-95-31.8-182.7-85.3-253.1 23.6-24 36.9-56.1 36.9-90.3 0-71.1-57.8-128.9-128.9-128.9-50.4 0-94.9 28.8-116 72.6-39.7-12.5-81.9-19.3-125.7-19.3s-86 6.8-125.7 19.3c-21.1-43.5-65.6-72.6-116-72.6-71.1 0-128.9 57.8-128.9 128.9 0 34.3 13.6 66.6 36.9 90.3C124.8 352.7 93 440.5 93 535.5c0 110.5 43 211.1 113.1 286.1l-93.2 93.2c-0.8 0.8-0.8 2.1 0 2.8l42.8 42.8c0.8 0.8 2.1 0.8 2.8 0l95.2-95.2c71.2 55.9 161 89.3 258.3 89.3 90.3 0 174-28.7 242.5-77.5l83.3 83.3c0.8 0.8 2.1 0.8 2.8 0l42.8-42.8c0.8-0.8 0.8-2.1 0-2.8l-79.2-79.2z m-50.5-707.9c35.5 0 64.5 28.9 64.5 64.5 0 15.6-5.6 30.3-15.5 41.9-30.8-29.7-66.2-54.8-104.9-74 11.2-19.7 32.3-32.4 55.9-32.4z m-483.4 0c23.7 0 44.7 12.8 55.9 32.3-38.7 19.2-74.1 44.3-104.9 74-9.8-11.5-15.5-26.3-15.5-41.9 0-35.5 28.9-64.4 64.5-64.4zM157.5 535.5C157.5 340 316.5 181 512 181s354.5 159 354.5 354.5S707.5 890 512 890 157.5 730.9 157.5 535.5z" fill="#BA2C1B"></path></svg>