<?xml version="1.0" standalone="no"?><!DOCTYPE svg PUBLIC "-//W3C//DTD SVG 1.1//EN" "http://www.w3.org/Graphics/SVG/1.1/DTD/svg11.dtd"><svg t="1547719290030" class="icon" style="" viewBox="0 0 1024 1024" version="1.1" xmlns="http://www.w3.org/2000/svg" xmlns:xlink="http://www.w3.org/1999/xlink" width="64" height="64"><defs><style type="text/css"></style></defs><path d="M910.222222 796.444444c-17.066667 0-34.133333-5.688889-45.511111-17.066666L551.822222 409.6c-11.377778-5.688889-17.066667-11.377778-34.133333-11.377778-5.688889 0-22.755556 5.688889-28.444445 11.377778l-329.955555 364.088889c-22.755556 22.755556-56.888889 22.755556-79.644445 5.688889-22.755556-22.755556-22.755556-56.888889-5.688888-79.644445l329.955555-364.088889c28.444444-34.133333 73.955556-51.2 119.466667-51.2s85.333333 22.755556 119.466666 56.888889l312.888889 364.088889c22.755556 22.755556 17.066667 56.888889-5.688889 79.644445-11.377778 5.688889-28.444444 11.377778-39.822222 11.377777z"></path></svg>